<svg xmlns="http://www.w3.org/2000/svg" viewBox="0 0 32 32" width="32" height="32">
  <!-- Background -->
  <rect width="32" height="32" fill="#1a1a1a" rx="4"/>
  
  <!-- Blocks row 1 -->
  <rect x="4" y="4" width="4" height="2" fill="#FF6B6B" stroke="#fff" stroke-width="0.2"/>
  <rect x="8" y="4" width="4" height="2" fill="#4ECDC4" stroke="#fff" stroke-width="0.2"/>
  <rect x="12" y="4" width="4" height="2" fill="#45B7D1" stroke="#fff" stroke-width="0.2"/>
  <rect x="16" y="4" width="4" height="2" fill="#96CEB4" stroke="#fff" stroke-width="0.2"/>
  <rect x="20" y="4" width="4" height="2" fill="#FFEAA7" stroke="#fff" stroke-width="0.2"/>
  <rect x="24" y="4" width="4" height="2" fill="#FF8A80" stroke="#fff" stroke-width="0.2"/>
  
  <!-- Blocks row 2 -->
  <rect x="4" y="6" width="4" height="2" fill="#80CBC4" stroke="#fff" stroke-width="0.2"/>
  <rect x="8" y="6" width="4" height="2" fill="#81C784" stroke="#fff" stroke-width="0.2"/>
  <rect x="12" y="6" width="4" height="2" fill="#FFB74D" stroke="#fff" stroke-width="0.2"/>
  <rect x="16" y="6" width="4" height="2" fill="#F06292" stroke="#fff" stroke-width="0.2"/>
  <rect x="20" y="6" width="4" height="2" fill="#BA68C8" stroke="#fff" stroke-width="0.2"/>
  <rect x="24" y="6" width="4" height="2" fill="#64B5F6" stroke="#fff" stroke-width="0.2"/>
  
  <!-- Golden ball -->
  <circle cx="16" cy="16" r="3.5" fill="#FFD700" stroke="#B8860B" stroke-width="0.5"/>
  <circle cx="15" cy="14.5" r="1" fill="#FFEF94" opacity="0.8"/>
  
  <!-- Paddle -->
  <rect x="8" y="26" width="16" height="2" fill="#333" rx="1"/>
  <rect x="8" y="26" width="16" height="1" fill="#555" rx="1"/>
</svg>